<?xml version="1.0" encoding="UTF-8" standalone="no"?>
<!-- Generator: Adobe Illustrator 17.0.0, SVG Export Plug-In . SVG Version: 6.00 Build 0)  -->

<svg
   xmlns:dc="http://purl.org/dc/elements/1.1/"
   xmlns:cc="http://creativecommons.org/ns#"
   xmlns:rdf="http://www.w3.org/1999/02/22-rdf-syntax-ns#"
   xmlns:svg="http://www.w3.org/2000/svg"
   xmlns="http://www.w3.org/2000/svg"
   xmlns:xlink="http://www.w3.org/1999/xlink"
   xmlns:sodipodi="http://sodipodi.sourceforge.net/DTD/sodipodi-0.dtd"
   xmlns:inkscape="http://www.inkscape.org/namespaces/inkscape"
   version="1.1"
   id="svg4379"
   sodipodi:docname="com.github.bleakgrey.tootle.svg"
   inkscape:version="0.92.4 5da689c313, 2019-01-14"
   x="0px"
   y="0px"
   width="16"
   height="16"
   viewBox="0 0 16 16"
   enable-background="new 0 0 128 128"
   xml:space="preserve"><metadata
     id="metadata59"><rdf:RDF><cc:Work
         rdf:about=""><dc:format>image/svg+xml</dc:format><dc:type
           rdf:resource="http://purl.org/dc/dcmitype/StillImage" /><dc:title></dc:title></cc:Work></rdf:RDF></metadata><defs
     id="defs57"><linearGradient
       inkscape:collect="always"
       id="linearGradient1043"><stop
         style="stop-color:#61727e;stop-opacity:1"
         offset="0"
         id="stop1039" /><stop
         style="stop-color:#445567;stop-opacity:1"
         offset="1"
         id="stop1041" /></linearGradient><linearGradient
       id="linearGradient1022"><stop
         style="stop-color:#cccccc;stop-opacity:0.84705883"
         offset="0"
         id="stop1016" /><stop
         style="stop-color:#cfcfcf;stop-opacity:0.25142857"
         offset="0.5"
         id="stop1018" /><stop
         style="stop-color:#c2c2c2;stop-opacity:0.71428573"
         offset="1"
         id="stop1020" /></linearGradient><radialGradient
       id="rect2801_1_"
       cx="-136.6434"
       cy="5007.957"
       r="2.4993999"
       gradientTransform="matrix(16.185789,0,0,-0.71428566,2315.4376,3695.6119)"
       gradientUnits="userSpaceOnUse"><stop
         offset="0"
         style="stop-color:#181818"
         id="stop12" /><stop
         offset="1"
         style="stop-color:#181818;stop-opacity:0"
         id="stop14" /></radialGradient><radialGradient
       id="rect3696_1_"
       cx="-165.4541"
       cy="6006.0449"
       r="2.4993999"
       gradientTransform="matrix(-16.185789,0,0,0.71428566,-2653.7577,-4171.5317)"
       gradientUnits="userSpaceOnUse"><stop
         offset="0"
         style="stop-color:#181818"
         id="stop18" /><stop
         offset="1"
         style="stop-color:#181818;stop-opacity:0"
         id="stop20" /></radialGradient><linearGradient
       id="rect3700_1_"
       gradientUnits="userSpaceOnUse"
       x1="-115.496"
       y1="4803.4004"
       x2="-115.496"
       y2="4810.4287"
       gradientTransform="matrix(8.0775472,0,0,-0.51021425,996.92558,2571.7338)"><stop
         offset="0"
         style="stop-color:#181818;stop-opacity:0"
         id="stop24" /><stop
         offset="0.5"
         style="stop-color:#181818"
         id="stop26" /><stop
         offset="1"
         style="stop-color:#181818;stop-opacity:0"
         id="stop28" /></linearGradient><linearGradient
       id="linearGradient4236"><stop
         id="stop871"
         style="stop-color:#575d5e;stop-opacity:1"
         offset="0" /><stop
         id="stop873"
         style="stop-color:#292d2e;stop-opacity:1"
         offset="1" /></linearGradient><linearGradient
       id="linearGradient3895"><stop
         id="stop876"
         offset="0"
         style="stop-color:#ffffff;stop-opacity:1" /><stop
         id="stop878"
         offset=".03"
         style="stop-color:#ffffff;stop-opacity:0.23529412" /><stop
         id="stop880"
         offset=".978"
         style="stop-color:#ffffff;stop-opacity:0.15686275" /><stop
         id="stop882"
         offset="1"
         style="stop-color:#ffffff;stop-opacity:0.39215687" /></linearGradient><linearGradient
       id="linearGradient3688-166-749"><stop
         id="stop885"
         offset="0"
         style="stop-color:#181818;stop-opacity:1" /><stop
         id="stop887"
         offset="1"
         style="stop-color:#181818;stop-opacity:0" /></linearGradient><linearGradient
       id="linearGradient3702-501-757"><stop
         id="stop895"
         offset="0"
         style="stop-color:#181818;stop-opacity:0" /><stop
         id="stop897"
         offset=".5"
         style="stop-color:#181818;stop-opacity:1" /><stop
         id="stop899"
         offset="1"
         style="stop-color:#181818;stop-opacity:0" /></linearGradient><linearGradient
       xlink:href="#linearGradient3895"
       gradientUnits="userSpaceOnUse"
       gradientTransform="translate(134.96718,94.745906)"
       y2="41.933998"
       y1="6.0320001"
       x2="24"
       x1="24"
       id="linearGradient3024" /><radialGradient
       xlink:href="#linearGradient3688-166-749"
       gradientUnits="userSpaceOnUse"
       gradientTransform="matrix(2.003784,0,0,1.4,27.98813,-17.4)"
       fy="43.5"
       fx="4.993"
       r="2.5"
       cy="43.5"
       cx="4.993"
       id="radialGradient3038" /><radialGradient
       xlink:href="#linearGradient3688-166-749"
       gradientUnits="userSpaceOnUse"
       gradientTransform="matrix(2.003784,0,0,1.4,-20.01187,-104.4)"
       fy="43.5"
       fx="4.993"
       r="2.5"
       cy="43.5"
       cx="4.993"
       id="radialGradient3040" /><linearGradient
       xlink:href="#linearGradient3702-501-757"
       gradientUnits="userSpaceOnUse"
       y2="39.999001"
       y1="47.028"
       x2="25.058001"
       x1="25.058001"
       id="linearGradient3042" /><linearGradient
       xlink:href="#linearGradient4236"
       gradientUnits="userSpaceOnUse"
       y2="44"
       y1="6"
       x2="25"
       x1="25"
       id="linearGradient4232"
       gradientTransform="translate(134.96718,93.7459)" /><linearGradient
       inkscape:collect="always"
       xlink:href="#linearGradient1022"
       id="linearGradient1014"
       x1="62.033897"
       y1="15.338983"
       x2="61.491524"
       y2="118.25423"
       gradientUnits="userSpaceOnUse" /><radialGradient
       inkscape:collect="always"
       xlink:href="#SVGID_1_"
       id="radialGradient1032"
       gradientUnits="userSpaceOnUse"
       cx="-42.270901"
       cy="69.194901"
       fx="-55.774502"
       fy="69.194901"
       r="322.72021" /><mask
       maskUnits="userSpaceOnUse"
       id="mask1028"><path
         inkscape:connector-curvature="0"
         id="path1030"
         d="m 115.5,21.55 v 90.9 c 0,3.34 -2.71,6.05 -6.05,6.05 h -90.9 c -3.34,0 -6.05,-2.71 -6.05,-6.05 v -90.9 c 0,-3.34 2.71,-6.05 6.05,-6.05 h 90.9 c 3.34,0 6.05,2.71 6.05,6.05 z"
         style="fill:url(#radialGradient1032)" /></mask><linearGradient
       inkscape:collect="always"
       xlink:href="#linearGradient1043"
       id="linearGradient1045"
       x1="22.583891"
       y1="36.266201"
       x2="103.54142"
       y2="86.516197"
       gradientUnits="userSpaceOnUse" /><radialGradient
       inkscape:collect="always"
       xlink:href="#SVGID_1_"
       id="radialGradient1128"
       gradientUnits="userSpaceOnUse"
       cx="-42.270901"
       cy="69.194901"
       fx="-55.774502"
       fy="69.194901"
       r="322.72021"
       gradientTransform="matrix(0.12937134,0,0,0.12937134,-0.28776822,111.40141)" /></defs><sodipodi:namedview
     pagecolor="#ffffff"
     bordercolor="#666666"
     borderopacity="1"
     objecttolerance="10"
     gridtolerance="10"
     guidetolerance="10"
     inkscape:pageopacity="0"
     inkscape:pageshadow="2"
     inkscape:window-width="2560"
     inkscape:window-height="1386"
     id="namedview55"
     showgrid="true"
     inkscape:zoom="32"
     inkscape:cx="8.1432233"
     inkscape:cy="8.6807533"
     inkscape:window-x="0"
     inkscape:window-y="28"
     inkscape:window-maximized="1"
     inkscape:current-layer="layer3"
     inkscape:object-paths="true"
     inkscape:snap-intersection-paths="true"
     inkscape:snap-smooth-nodes="true"
     inkscape:snap-nodes="true"
     inkscape:object-nodes="true"
     showguides="true"
     inkscape:guide-bbox="true"
     inkscape:snap-page="true"
     inkscape:snap-grids="false"><inkscape:grid
       type="xygrid"
       id="grid1047" /><sodipodi:guide
       position="17.359375,1.015625"
       orientation="0,1"
       id="guide1049"
       inkscape:locked="false" /><sodipodi:guide
       position="16.71875,14"
       orientation="0,1"
       id="guide1051"
       inkscape:locked="false" /></sodipodi:namedview><radialGradient
     id="path3041_1_"
     cx="-292.72079"
     cy="1871.6008"
     r="35.3381"
     gradientTransform="matrix(1.5564,0,0,-0.1698,519.5884,435.7747)"
     gradientUnits="userSpaceOnUse"><stop
       offset="0"
       style="stop-color:#000000"
       id="stop4" /><stop
       offset="1"
       style="stop-color:#000000;stop-opacity:0"
       id="stop6" /></radialGradient><radialGradient
     id="SVGID_1_"
     cx="-42.270901"
     cy="69.194901"
     r="322.72021"
     fx="-55.774502"
     fy="69.194901"
     gradientUnits="userSpaceOnUse"><stop
       offset="0"
       style="stop-color:#9BAEC8"
       id="stop32" /><stop
       offset="0.4576"
       style="stop-color:#8093AA"
       id="stop34" /><stop
       offset="1"
       style="stop-color:#273445"
       id="stop36" /></radialGradient><linearGradient
     id="rect6741-7_1_"
     gradientUnits="userSpaceOnUse"
     x1="-329.08499"
     y1="3929.1445"
     x2="-329.08499"
     y2="3891.1445"
     gradientTransform="matrix(2.7297,0,0,-2.7297,962.313,10740.014)"><stop
       offset="0"
       style="stop-color:#FFFFFF"
       id="stop41" /><stop
       offset="0.0632"
       style="stop-color:#FFFFFF;stop-opacity:0.2353"
       id="stop43" /><stop
       offset="0.9506"
       style="stop-color:#FFFFFF;stop-opacity:0.1569"
       id="stop45" /><stop
       offset="1"
       style="stop-color:#FFFFFF;stop-opacity:0.3922"
       id="stop47" /></linearGradient><g
     inkscape:groupmode="layer"
     id="layer1"
     inkscape:label="Layer 1"
     transform="translate(0,-112)"
     style="display:none"><rect
       style="opacity:1;fill:#445567;fill-opacity:1;fill-rule:evenodd;stroke:none;stroke-width:0.99999994;stroke-linecap:round;stroke-linejoin:round;stroke-miterlimit:4;stroke-dasharray:none;stroke-dashoffset:0;stroke-opacity:0.71428576;paint-order:markers fill stroke"
       id="rect1126"
       width="16"
       height="16"
       x="0"
       y="112" /></g><g
     inkscape:groupmode="layer"
     id="layer2"
     inkscape:label="Layer 2"
     transform="translate(0,-112)"><g
       transform="matrix(0.37251941,0,0,0.20682074,-0.95765759,117.65871)"
       style="opacity:0.6;stroke-width:3.99305964"
       id="g915"><rect
         width="5"
         height="7"
         x="38"
         y="40"
         style="fill:url(#radialGradient3038);fill-opacity:1;stroke:none;stroke-width:3.99305964"
         id="rect909" /><rect
         width="5"
         height="7"
         x="-10"
         y="-47"
         transform="scale(-1)"
         style="fill:url(#radialGradient3040);fill-opacity:1;stroke:none;stroke-width:3.99305964"
         id="rect911" /><rect
         width="28"
         height="7"
         x="10"
         y="40"
         style="fill:url(#linearGradient3042);fill-opacity:1;stroke:none;stroke-width:3.99305964"
         id="rect913" /></g><path
       style="fill:url(#radialGradient1128);stroke-width:0.5165875"
       d="m 14.654622,114.18935 v 11.75987 c 0,0.43209 -0.350597,0.78268 -0.782696,0.78268 H 2.1120702 c -0.4321002,0 -0.7826964,-0.35059 -0.7826964,-0.78268 v -11.75987 c 0,-0.43209 0.3505962,-0.7827 0.7826964,-0.7827 H 13.871926 c 0.432099,0 0.782696,0.35061 0.782696,0.7827 z"
       id="path38"
       inkscape:connector-curvature="0" /><path
       style="opacity:0.5;fill:none;stroke:#0e141f;stroke-width:0.99999988;stroke-linecap:round;stroke-linejoin:round;stroke-miterlimit:4;stroke-dasharray:none"
       id="rect5505-21-6"
       enable-background="new    "
       d="M 2.1056018,113.40665 H 13.878394 c 0.428737,0 0.776228,0.3475 0.776228,0.77625 v 11.77278 c 0,0.42873 -0.347491,0.77622 -0.776228,0.77622 H 2.1056018 c -0.4287367,0 -0.776228,-0.34749 -0.776228,-0.77622 V 114.1829 c 0,-0.42875 0.3474913,-0.77625 0.776228,-0.77625 z"
       inkscape:connector-curvature="0" /><path
       inkscape:connector-curvature="0"
       id="path1006"
       d="m 115.5,21.55 v 90.9 c 0,3.34 -2.71,6.05 -6.05,6.05 h -90.9 c -3.34,0 -6.05,-2.71 -6.05,-6.05 v -90.9 c 0,-3.34 2.71,-6.05 6.05,-6.05 h 90.9 c 3.34,0 6.05,2.71 6.05,6.05 z"
       style="fill:none;stroke:url(#linearGradient1014);stroke-width:15.45937443;stroke-miterlimit:4;stroke-dasharray:none;stroke-opacity:1"
       mask="url(#mask1028)"
       transform="matrix(0.12937137,0,0,0.12937137,-0.28776826,111.40142)" /></g><g
     inkscape:groupmode="layer"
     id="layer3"
     inkscape:label="Layer 3"
     transform="translate(0,-112)"><g
       id="g1143"
       transform="matrix(0.1120502,0,0,0.1120502,0.81321132,112.49943)"
       style="stroke-width:4.61032295"><path
         inkscape:connector-curvature="0"
         id="path53"
         d="M 108.571,55.606 96.607,32.686 c -0.018,-0.027 -0.034,-0.051 -0.055,-0.075 -0.082,-0.106 -0.178,-0.199 -0.284,-0.275 -0.426,-0.311 -1.007,-0.375 -1.507,-0.114 -0.293,0.155 -0.511,0.396 -0.636,0.678 -0.018,0.025 -0.026,0.054 -0.037,0.083 L 87.621,48.494 74.79,55.193 c -0.084,0.044 -0.171,0.088 -0.251,0.134 l -4.363,2.278 -3.801,1.984 -0.994,-1.905 c -0.564,-1.079 -1.89,-1.496 -2.969,-0.932 -1.077,0.562 -1.496,1.89 -0.932,2.969 l 0.994,1.905 -3.672,1.917 -3.172,-6.075 5.693,-2.971 c 1.461,-0.765 2.029,-2.571 1.266,-4.032 -0.123,-0.238 -0.274,-0.45 -0.449,-0.638 l -0.259,-0.251 c -0.899,-0.769 -2.213,-0.958 -3.323,-0.378 l -16.812,8.775 c -1.463,0.765 -2.031,2.571 -1.268,4.034 0.12,0.229 0.265,0.437 0.433,0.62 0.087,0.099 0.182,0.192 0.282,0.273 0.899,0.764 2.208,0.951 3.318,0.371 l 5.691,-2.969 3.17,6.075 -4.054,2.116 -0.994,-1.905 c -0.564,-1.077 -1.894,-1.494 -2.969,-0.932 -0.284,0.148 -0.521,0.349 -0.709,0.585 -0.52,0.66 -0.639,1.589 -0.225,2.384 l 0.994,1.905 -6.172,3.223 c -0.084,0.042 -0.169,0.086 -0.253,0.13 l -14.7,7.674 -5.016,-1.089 c -0.014,-0.004 -0.027,-0.006 -0.038,-0.008 -0.139,-0.027 -0.289,-0.006 -0.424,0.063 -0.3,0.157 -0.428,0.511 -0.309,0.818 l 5.501,10.535 c 0.014,0.02 0.028,0.04 0.043,0.058 l 0.007,0.009 0.08,0.075 c 0.195,0.162 0.476,0.198 0.718,0.073 0.135,-0.072 0.234,-0.181 0.293,-0.312 0.007,-0.011 0.011,-0.023 0.015,-0.036 l 2.014,-4.828 5.884,-3.073 c 0.023,1.672 0.427,3.363 1.253,4.946 2.823,5.406 9.497,7.502 14.906,4.679 0.084,-0.044 0.169,-0.088 0.251,-0.134 l 6.172,-3.223 1.154,2.211 c 0.562,1.077 1.894,1.494 2.969,0.932 1.077,-0.562 1.496,-1.892 0.934,-2.969 l -1.154,-2.209 4.054,-2.118 3.367,6.448 c 0.784,1.501 2.632,2.082 4.133,1.298 0.42,-0.217 0.768,-0.521 1.029,-0.875 0.688,-0.914 0.831,-2.177 0.267,-3.258 l -3.364,-6.448 3.672,-1.917 1.154,2.209 c 0.562,1.077 1.892,1.496 2.969,0.934 1.079,-0.564 1.494,-1.894 0.932,-2.969 l -1.154,-2.211 8.517,-4.446 c 0.588,-0.314 1.135,-0.675 1.642,-1.075 4.085,-3.225 5.435,-8.995 2.94,-13.776 -0.825,-1.581 -1.982,-2.879 -3.34,-3.855 l 4.014,-2.095 16.518,3.58 c 0.031,0.008 0.059,0.017 0.088,0.019 0.305,0.058 0.627,0.019 0.92,-0.136 0.649,-0.34 0.928,-1.109 0.67,-1.778 z M 46.51,88.011 c -0.038,0.023 -0.073,0.042 -0.113,0.062 -2.431,1.269 -5.427,0.329 -6.697,-2.102 -1.267,-2.429 -0.329,-5.425 2.098,-6.694 l 6.432,-3.357 4.592,8.797 z m 10.214,-5.332 -4.592,-8.797 0.269,-0.139 3.786,-1.977 4.592,8.797 -0.864,0.451 z m 9.485,-4.95 -4.592,-8.797 3.672,-1.917 4.592,8.797 z m 15.235,-7.963 c -0.053,0.034 -0.109,0.067 -0.164,0.095 l -7.498,3.915 -4.592,-8.797 5.591,-2.92 1.792,-0.934 c 0.095,-0.049 0.191,-0.095 0.289,-0.139 2.374,-1.056 5.189,-0.094 6.408,2.241 1.075,2.056 0.567,4.516 -1.086,5.995 -0.226,0.199 -0.472,0.383 -0.74,0.544 z"
         style="fill:url(#linearGradient1045);fill-opacity:1;stroke-width:4.61032295" /><path
         sodipodi:nodetypes="scccccccccccccccccccccssccccccccccccsccccccccccccccccccccccccccccccccccccccccccccccccccccccccccccccccccccccccccccccccccccccccccccccccccccccccccccccccccccccccccccccccccccccc"
         inkscape:connector-curvature="0"
         id="path1036"
         d="m 95.542969,32.064453 c -0.261,-0.02225 -0.53125,0.0277 -0.78125,0.158203 -0.293,0.155 -0.511719,0.395735 -0.636719,0.677735 -0.018,0.025 -0.02611,0.05303 -0.03711,0.08203 L 87.621093,48.49414 74.789061,55.193358 c -0.084,0.044 -0.17,0.08681 -0.25,0.132813 L 70.17578,57.605468 67.058593,59.232421 66.375,59.589 c 0.707419,0.672737 1.350194,1.325095 1.999999,2.00084 l 3.800781,-1.984375 4.363281,-2.279297 c 0.08,-0.046 0.167954,-0.08881 0.251954,-0.132813 L 89.621093,50.49414 96.08789,34.982421 c 0.011,-0.029 0.01911,-0.05703 0.03711,-0.08203 0.125,-0.282 0.343719,-0.522735 0.636719,-0.677735 0.183781,-0.09593 0.378317,-0.134493 0.572265,-0.146484 l -0.726562,-1.390625 c -0.018,-0.027 -0.03369,-0.05022 -0.05469,-0.07422 -0.082,-0.106 -0.179156,-0.19939 -0.285156,-0.27539 -0.213,-0.155501 -0.463609,-0.249235 -0.724609,-0.271485 z M 59.859375,48.859375 c -0.440982,0.01119 -0.884531,0.120391 -1.300781,0.337891 l -16.8125,8.77539 c -1.463,0.765 -2.030578,2.572156 -1.267578,4.035156 0.12,0.229 0.26364,0.436141 0.43164,0.619141 0.087,0.099 0.183203,0.192438 0.283203,0.273438 0.315737,0.268323 0.68372,0.460375 1.074219,0.578125 -0.402383,-1.345261 0.18755,-2.830816 1.478516,-3.50586 l 16.8125,-8.77539 c 0.71884,-0.375611 1.520355,-0.423159 2.242187,-0.205078 -0.05362,-0.179052 -0.121233,-0.355578 -0.210937,-0.527344 -0.123,-0.238 -0.274219,-0.450672 -0.449219,-0.638672 l -0.259766,-0.25 c -0.561875,-0.480625 -1.286513,-0.73544 -2.021484,-0.716797 z m 3.439453,7.648437 c -0.329005,0.01395 -0.61837,0.107955 -0.886828,0.244188 -0.38013,0.190161 -0.70619,0.56046 -0.706922,0.587844 -0.520335,0.659243 -0.639725,1.586692 -0.224609,2.380859 l 0.99414,1.90625 -2.919921,1.523438 L 58.802,63.543 60.802734,65.542969 64.474609,63.625 63.480469,61.720703 c -0.564,-1.079 -0.14536,-2.40675 0.93164,-2.96875 0.454532,-0.237586 0.951201,-0.29181 1.417969,-0.205078 l -0.449219,-0.863281 c -0.41524,-0.794404 -1.243377,-1.226359 -2.082031,-1.175782 z m 25.134766,1.470704 -0.07227,0.03711 c 0.09357,0.06725 0.177912,0.148456 0.269531,0.21875 -0.06593,-0.08529 -0.12915,-0.172907 -0.197265,-0.255859 z M 52.201172,62.302734 50.202,60.302 51.449219,62.695312 53.371094,66.376953 50,68.136719 c 0,0 -0.614266,0.320927 -0.673945,0.358063 0.977693,0.696308 1.250445,1.087866 1.992304,1.997407 l 4.054688,-2.115235 z m 31.029297,0.863282 c 0.01165,0.02155 0.02769,0.03876 0.03906,0.06055 1.075,2.056001 0.567063,4.517094 -1.085937,5.996094 -0.226,0.199 -0.472235,0.381969 -0.740235,0.542969 -0.053,0.034 -0.109062,0.0677 -0.164062,0.0957 L 74.533203,73.382812 73.782,73.776 l 1.99925,1.999391 7.498047,-3.914063 c 0.055,-0.028 0.111062,-0.0617 0.164062,-0.0957 0.268,-0.161 0.514235,-0.343969 0.740235,-0.542969 1.653,-1.479 2.160937,-3.940094 1.085937,-5.996094 -0.475768,-0.911335 -1.198166,-1.605854 -2.039062,-2.060546 z m -37.03711,2.246093 c -0.0065,5.32e-4 -0.01298,0.0033 -0.01953,0.0039 -0.201638,0.07576 -0.406365,0.127926 -0.613281,0.158203 -0.06853,0.02744 -0.138275,0.04711 -0.205078,0.08203 -0.284,0.148 -0.520985,0.347984 -0.708985,0.583984 -0.52,0.66 -0.638609,1.589766 -0.224609,2.384766 l 0.992187,1.904297 -6.171874,3.224609 c -0.084,0.042 -0.167954,0.08491 -0.251954,0.128906 L 24.289062,81.556641 19.273438,80.46875 c -0.014,-0.004 -0.02611,-0.0058 -0.03711,-0.0078 -0.139,-0.027 -0.288828,-0.0065 -0.423828,0.0625 -0.3,0.156999 -0.427594,0.511359 -0.308594,0.818359 l 5.5,10.535156 c 0.014,0.02 0.02797,0.03864 0.04297,0.05664 l 0.0078,0.0098 0.08008,0.07422 c 0.195,0.162 0.474796,0.199219 0.716796,0.07422 0.06071,-0.03238 0.112416,-0.07511 0.158204,-0.121094 l -4.50586,-8.628906 c -0.119,-0.307 0.0086,-0.66136 0.308594,-0.818359 0.135,-0.069 0.284828,-0.09145 0.423828,-0.06445 0.011,0.002 0.02311,0.0058 0.03711,0.0098 l 5.017578,1.087891 14.699218,-7.673829 c 0.084,-0.044 0.167953,-0.08691 0.251954,-0.128906 L 47.416016,72.529297 46.421875,70.625 c -0.414,-0.795 -0.295391,-1.724766 0.224609,-2.384766 0.188,-0.236 0.424985,-0.435984 0.708985,-0.583984 0.454065,-0.237381 0.951808,-0.291031 1.419922,-0.203125 l -0.451172,-0.865234 c -0.423,-0.80775 -1.276844,-1.24511 -2.13086,-1.175782 z M 67.289062,69.015625 65.289,67.015 66.537109,69.408203 69.880859,75.8125 66.960938,77.335938 66.209,77.729 68.208984,79.728516 71.880859,77.8125 Z m -9.101562,4.75 -2.0005,-1.999625 1.248547,2.392203 3.34375,6.404297 -0.865235,0.451172 -2.4375,1.273437 L 56.724,82.679 58.724609,84.679688 61.916016,83.013672 62.779297,82.5625 Z M 50.230469,77.919922 48.23,75.92 l 1.248516,2.3925 3.34375,6.404297 -6.3125,3.294922 c -0.038,0.023 -0.07328,0.04055 -0.113282,0.06055 -1.517984,0.792399 -3.255459,0.724162 -4.65625,-0.03125 1.291287,2.376997 4.249605,3.287536 6.65625,2.03125 0.04,-0.02 0.07528,-0.03755 0.113282,-0.06055 l 6.3125,-3.294922 z M 74.701172,83.205078 72.701,81.205 l 0.964002,1.845304 c 0.09881,0.183277 0.190987,0.384572 0.29731,0.54743 0.336912,0.519671 0.860993,0.854474 1.450661,0.96395 z M 35.054664,85.833988 33.058,83.842 c -3.5e-5,-1.8e-5 -0.0338,0.220844 0.106439,1.382288 0.04944,0.449161 0.166927,0.904563 0.297915,1.428691 0.203081,0.720536 0.484218,1.436308 0.844263,2.126321 0.766384,1.467613 1.826953,2.691147 3.058617,3.638669 -0.38965,-0.505856 -0.748902,-1.045286 -1.054687,-1.63086 -0.826,-1.583 -1.232883,-3.281121 -1.255883,-4.953121 z M 65.597656,87.957031 63.882661,86.242571 63.597,85.957 l 1.250656,2.392609 2.117188,4.054688 c 0.379289,0.726165 1.008982,1.231438 1.726562,1.476562 z M 57.640625,92.109375 55.64,90.11 l 1.040176,1.992919 c 0.07301,0.140288 0.146969,0.289822 0.216307,0.394308 0.407036,0.594161 0.858546,0.858191 1.435272,0.966278 z"
         style="fill:#253141;fill-opacity:1;stroke-width:4.61032295" /></g></g></svg>